<svg width="16" height="28" viewBox="0 0 16 28" fill="none" xmlns="http://www.w3.org/2000/svg">
<path fill-rule="evenodd" clip-rule="evenodd" d="M16 4.00615L11.9675 4.00615L11.9675 -5.23115e-07L16 -6.99382e-07L16 4.00615ZM7.97832 8.01231L7.97832 4.00615L12.0108 4.00615L12.0108 8.01231L7.97832 8.01231ZM3.9458 12.0185L3.9458 8.01231L7.97832 8.01231L7.97832 12.0185L3.9458 12.0185ZM7.97832 19.9877L3.9458 19.9877L3.9458 15.9815L7.97832 15.9815L7.97832 19.9877ZM11.9675 23.9938L7.93496 23.9938L7.93496 19.9877L11.9675 19.9877L11.9675 23.9938ZM16 28L11.9675 28L11.9675 23.9938L16 23.9938L16 28ZM-5.25344e-07 15.9815L-7.00458e-07 11.9754L3.9458 11.9754L3.9458 15.9815L-5.25344e-07 15.9815Z" fill="white"/>
</svg>
