<svg width="68" height="15" viewBox="0 0 68 15" fill="none" xmlns="http://www.w3.org/2000/svg">
<path fill-rule="evenodd" clip-rule="evenodd" d="M57.5542 14.7222V12.3087H67.1333V14.7222H57.5542ZM43.1458 12.3087V9.89526H50.35V12.3087H43.1458ZM50.35 7.40134H52.725V9.81482H50.35V7.40134ZM45.6 4.98786H50.4292V7.40134H45.6V4.98786ZM43.1458 2.57438H45.5208V4.98786H43.1458V2.57438ZM52.8042 0.0804481V2.57438H45.6V0.0804481H52.8042ZM33.5667 9.81482V4.90741H35.9417V9.81482H33.5667ZM31.2708 12.3087V9.89526H33.5667V12.3087H31.2708ZM28.8167 4.98786H31.2708V9.89526H28.8167V4.98786ZM26.3625 0.0804481H28.7375V4.98786H26.3625V0.0804481ZM36.0208 0.0804481H38.3958V4.98786H36.0208V0.0804481ZM14.4083 0.0804481H21.6125V2.57438H16.8625V4.98786H21.6125V7.40134H16.8625V9.81482H21.6125V12.2283H14.4083V0.0804481ZM7.20417 2.57438H9.57917V9.89526H7.20417V2.57438ZM2.375 9.81482H7.20417V12.2283H0V0H7.20417V2.49393H2.375V9.81482Z" fill="#F50D5A"/>
</svg>
