<svg width="311" height="58" viewBox="0 0 311 58" fill="none" xmlns="http://www.w3.org/2000/svg">
<path d="M311 3C311 1.34315 309.657 0 308 0H58.4199V58H308C309.657 58 311 56.6569 311 55V3Z" fill="#4285F4"/>
<path d="M118.496 31.5747C118.496 31.0122 118.297 30.5786 117.898 30.2739C117.506 29.9693 116.794 29.6616 115.763 29.3511C114.731 29.0405 113.911 28.6948 113.302 28.314C112.136 27.5816 111.553 26.6265 111.553 25.4487C111.553 24.4175 111.972 23.5679 112.81 22.8999C113.653 22.2319 114.746 21.898 116.088 21.898C116.979 21.898 117.772 22.062 118.47 22.3902C119.167 22.7183 119.715 23.187 120.113 23.7964C120.512 24.3999 120.711 25.0708 120.711 25.8091H118.496C118.496 25.1411 118.285 24.6196 117.863 24.2446C117.447 23.8638 116.85 23.6734 116.07 23.6734C115.344 23.6734 114.778 23.8286 114.374 24.1392C113.976 24.4497 113.776 24.8833 113.776 25.44C113.776 25.9087 113.993 26.3013 114.427 26.6177C114.86 26.9282 115.575 27.2329 116.571 27.5318C117.567 27.8247 118.367 28.1616 118.971 28.5425C119.574 28.9175 120.017 29.3511 120.298 29.8433C120.579 30.3296 120.72 30.9009 120.72 31.5571C120.72 32.6236 120.31 33.4732 119.489 34.106C118.675 34.7329 117.567 35.0464 116.167 35.0464C115.241 35.0464 114.389 34.8765 113.609 34.5366C112.836 34.1909 112.232 33.7163 111.799 33.1128C111.371 32.5093 111.157 31.8062 111.157 31.0034H113.381C113.381 31.73 113.621 32.2925 114.102 32.6909C114.582 33.0894 115.271 33.2886 116.167 33.2886C116.94 33.2886 117.521 33.1333 117.907 32.8228C118.3 32.5064 118.496 32.0903 118.496 31.5747ZM124.403 34.8706H122.267V25.3609H124.403V34.8706ZM122.135 22.8911C122.135 22.563 122.238 22.2905 122.443 22.0737C122.654 21.8569 122.953 21.7486 123.34 21.7486C123.726 21.7486 124.025 21.8569 124.236 22.0737C124.447 22.2905 124.552 22.563 124.552 22.8911C124.552 23.2134 124.447 23.4829 124.236 23.6997C124.025 23.9107 123.726 24.0161 123.34 24.0161C122.953 24.0161 122.654 23.9107 122.443 23.6997C122.238 23.4829 122.135 23.2134 122.135 22.8911ZM126.03 30.0454C126.03 28.5689 126.375 27.3911 127.067 26.5122C127.764 25.6275 128.687 25.1851 129.835 25.1851C130.919 25.1851 131.772 25.563 132.393 26.3189L132.49 25.3609H134.414V34.5806C134.414 35.8286 134.025 36.813 133.245 37.5337C132.472 38.2544 131.426 38.6148 130.108 38.6148C129.41 38.6148 128.728 38.4683 128.06 38.1753C127.398 37.8882 126.894 37.5103 126.548 37.0415L127.559 35.7583C128.215 36.5376 129.024 36.9273 129.985 36.9273C130.694 36.9273 131.253 36.7339 131.663 36.3472C132.074 35.9663 132.279 35.4038 132.279 34.6597V34.0181C131.663 34.7036 130.843 35.0464 129.818 35.0464C128.704 35.0464 127.793 34.604 127.084 33.7193C126.381 32.8345 126.03 31.6099 126.03 30.0454ZM128.157 30.23C128.157 31.1851 128.35 31.938 128.737 32.4888C129.129 33.0337 129.671 33.3062 130.363 33.3062C131.224 33.3062 131.863 32.937 132.279 32.1987V28.0152C131.874 27.2944 131.242 26.9341 130.38 26.9341C129.677 26.9341 129.129 27.2124 128.737 27.7691C128.35 28.3257 128.157 29.146 128.157 30.23ZM138.265 25.3609L138.326 26.4595C139.029 25.6099 139.952 25.1851 141.095 25.1851C143.075 25.1851 144.083 26.3189 144.118 28.5864V34.8706H141.982V28.7095C141.982 28.106 141.851 27.6607 141.587 27.3736C141.329 27.0806 140.904 26.9341 140.312 26.9341C139.451 26.9341 138.81 27.3237 138.388 28.103V34.8706H136.252V25.3609H138.265ZM152.39 34.8706H150.254V25.3609H152.39V34.8706ZM150.122 22.8911C150.122 22.563 150.225 22.2905 150.43 22.0737C150.641 21.8569 150.94 21.7486 151.326 21.7486C151.713 21.7486 152.012 21.8569 152.223 22.0737C152.434 22.2905 152.539 22.563 152.539 22.8911C152.539 23.2134 152.434 23.4829 152.223 23.6997C152.012 23.9107 151.713 24.0161 151.326 24.0161C150.94 24.0161 150.641 23.9107 150.43 23.6997C150.225 23.4829 150.122 23.2134 150.122 22.8911ZM156.372 25.3609L156.434 26.4595C157.137 25.6099 158.06 25.1851 159.202 25.1851C161.183 25.1851 162.19 26.3189 162.226 28.5864V34.8706H160.09V28.7095C160.09 28.106 159.958 27.6607 159.694 27.3736C159.437 27.0806 159.012 26.9341 158.42 26.9341C157.559 26.9341 156.917 27.3237 156.495 28.103V34.8706H154.359V25.3609H156.372ZM176.579 31.9263L178.091 25.3609H180.174L177.581 34.8706H175.824L173.785 28.3403L171.781 34.8706H170.023L167.421 25.3609H169.504L171.042 31.856L172.993 25.3609H174.602L176.579 31.9263ZM183.541 34.8706H181.405V25.3609H183.541V34.8706ZM181.273 22.8911C181.273 22.563 181.376 22.2905 181.581 22.0737C181.792 21.8569 182.091 21.7486 182.478 21.7486C182.864 21.7486 183.163 21.8569 183.374 22.0737C183.585 22.2905 183.69 22.563 183.69 22.8911C183.69 23.2134 183.585 23.4829 183.374 23.6997C183.163 23.9107 182.864 24.0161 182.478 24.0161C182.091 24.0161 181.792 23.9107 181.581 23.6997C181.376 23.4829 181.273 23.2134 181.273 22.8911ZM188.217 23.0493V25.3609H189.896V26.9429H188.217V32.2515C188.217 32.6148 188.288 32.8784 188.428 33.0425C188.575 33.2007 188.833 33.2798 189.202 33.2798C189.448 33.2798 189.697 33.2505 189.949 33.1919V34.8443C189.463 34.979 188.994 35.0464 188.543 35.0464C186.902 35.0464 186.082 34.1411 186.082 32.3306V26.9429H184.517V25.3609H186.082V23.0493H188.217ZM193.307 26.398C194.004 25.5894 194.886 25.1851 195.952 25.1851C197.98 25.1851 199.008 26.3423 199.037 28.6568V34.8706H196.902V28.7359C196.902 28.0796 196.758 27.6167 196.471 27.3472C196.19 27.0718 195.774 26.9341 195.223 26.9341C194.368 26.9341 193.729 27.315 193.307 28.0767V34.8706H191.171V21.3706H193.307V26.398ZM215.035 33.2095C214.572 33.813 213.93 34.27 213.11 34.5806C212.29 34.8911 211.358 35.0464 210.315 35.0464C209.243 35.0464 208.294 34.8032 207.467 34.3169C206.641 33.8306 206.003 33.1362 205.551 32.2339C205.106 31.3257 204.875 30.2681 204.857 29.0611V28.0591C204.857 26.1255 205.32 24.6167 206.246 23.5327C207.172 22.4429 208.464 21.898 210.122 21.898C211.546 21.898 212.676 22.2495 213.514 22.9527C214.352 23.6558 214.856 24.6694 215.026 25.9937H212.846C212.6 24.4527 211.707 23.6821 210.166 23.6821C209.17 23.6821 208.411 24.0425 207.889 24.7632C207.374 25.478 207.107 26.5298 207.09 27.9185V28.9028C207.09 30.2857 207.38 31.3609 207.96 32.1284C208.546 32.8902 209.357 33.271 210.394 33.271C211.531 33.271 212.34 33.0132 212.82 32.4976V29.9927H210.183V28.3052H215.035V33.2095ZM216.538 30.0278C216.538 29.0962 216.723 28.2583 217.092 27.5142C217.461 26.7642 217.98 26.19 218.648 25.7915C219.316 25.3872 220.083 25.1851 220.951 25.1851C222.234 25.1851 223.274 25.5982 224.071 26.4243C224.873 27.2505 225.307 28.3462 225.371 29.7114L225.38 30.2124C225.38 31.1499 225.199 31.9878 224.835 32.7261C224.478 33.4644 223.962 34.0357 223.288 34.44C222.62 34.8443 221.847 35.0464 220.968 35.0464C219.626 35.0464 218.551 34.6011 217.743 33.7105C216.94 32.814 216.538 31.6216 216.538 30.1333V30.0278ZM218.674 30.2124C218.674 31.1909 218.876 31.9585 219.281 32.5152C219.685 33.0659 220.247 33.3413 220.968 33.3413C221.689 33.3413 222.248 33.0601 222.647 32.4976C223.051 31.9351 223.253 31.1118 223.253 30.0278C223.253 29.0669 223.045 28.3052 222.629 27.7427C222.219 27.1802 221.66 26.8989 220.951 26.8989C220.253 26.8989 219.7 27.1773 219.289 27.7339C218.879 28.2847 218.674 29.1109 218.674 30.2124ZM226.453 30.0278C226.453 29.0962 226.638 28.2583 227.007 27.5142C227.376 26.7642 227.895 26.19 228.562 25.7915C229.23 25.3872 229.998 25.1851 230.865 25.1851C232.148 25.1851 233.188 25.5982 233.985 26.4243C234.788 27.2505 235.222 28.3462 235.286 29.7114L235.295 30.2124C235.295 31.1499 235.113 31.9878 234.75 32.7261C234.393 33.4644 233.877 34.0357 233.203 34.44C232.535 34.8443 231.762 35.0464 230.883 35.0464C229.541 35.0464 228.466 34.6011 227.657 33.7105C226.854 32.814 226.453 31.6216 226.453 30.1333V30.0278ZM228.589 30.2124C228.589 31.1909 228.791 31.9585 229.195 32.5152C229.6 33.0659 230.162 33.3413 230.883 33.3413C231.604 33.3413 232.163 33.0601 232.562 32.4976C232.966 31.9351 233.168 31.1118 233.168 30.0278C233.168 29.0669 232.96 28.3052 232.544 27.7427C232.134 27.1802 231.574 26.8989 230.865 26.8989C230.168 26.8989 229.614 27.1773 229.204 27.7339C228.794 28.2847 228.589 29.1109 228.589 30.2124ZM236.394 30.0454C236.394 28.5689 236.74 27.3911 237.431 26.5122C238.129 25.6275 239.051 25.1851 240.2 25.1851C241.284 25.1851 242.136 25.563 242.757 26.3189L242.854 25.3609H244.779V34.5806C244.779 35.8286 244.389 36.813 243.61 37.5337C242.837 38.2544 241.791 38.6148 240.472 38.6148C239.775 38.6148 239.092 38.4683 238.424 38.1753C237.762 37.8882 237.258 37.5103 236.913 37.0415L237.923 35.7583C238.58 36.5376 239.388 36.9273 240.349 36.9273C241.058 36.9273 241.618 36.7339 242.028 36.3472C242.438 35.9663 242.643 35.4038 242.643 34.6597V34.0181C242.028 34.7036 241.208 35.0464 240.182 35.0464C239.069 35.0464 238.158 34.604 237.449 33.7193C236.746 32.8345 236.394 31.6099 236.394 30.0454ZM238.521 30.23C238.521 31.1851 238.715 31.938 239.101 32.4888C239.494 33.0337 240.036 33.3062 240.727 33.3062C241.589 33.3062 242.227 32.937 242.643 32.1987V28.0152C242.239 27.2944 241.606 26.9341 240.745 26.9341C240.042 26.9341 239.494 27.2124 239.101 27.7691C238.715 28.3257 238.521 29.146 238.521 30.23ZM248.919 34.8706H246.784V21.3706H248.919V34.8706ZM255.107 35.0464C253.754 35.0464 252.655 34.6216 251.812 33.772C250.974 32.9165 250.555 31.7798 250.555 30.3618V30.0982C250.555 29.1489 250.736 28.3023 251.1 27.5581C251.469 26.8081 251.984 26.2251 252.646 25.8091C253.309 25.3931 254.047 25.1851 254.861 25.1851C256.156 25.1851 257.155 25.5982 257.858 26.4243C258.567 27.2505 258.922 28.4194 258.922 29.9312V30.7925H252.708C252.772 31.5777 253.033 32.1987 253.49 32.6558C253.953 33.1128 254.533 33.3413 255.23 33.3413C256.209 33.3413 257.006 32.9458 257.621 32.1548L258.772 33.2534C258.392 33.8218 257.882 34.2642 257.243 34.5806C256.61 34.8911 255.898 35.0464 255.107 35.0464ZM254.853 26.8989C254.267 26.8989 253.792 27.104 253.429 27.5142C253.071 27.9243 252.843 28.4956 252.743 29.228H256.812V29.0698C256.766 28.355 256.575 27.8159 256.241 27.4527C255.907 27.0835 255.444 26.8989 254.853 26.8989Z" fill="white"/>
<path d="M0.5 3C0.5 1.61929 1.61929 0.5 3 0.5H57.9199V57.5H3C1.61929 57.5 0.5 56.3807 0.5 55V3Z" fill="white" stroke="#4285F4"/>
<path d="M20.602 32.2025L19.5268 36.1907L15.5943 36.2746C14.4103 34.1096 13.7458 31.6328 13.7458 29C13.7458 26.4512 14.368 24.0523 15.4735 21.9412L18.9771 22.5769L20.5114 26.0314C20.1912 26.9609 20.0161 27.9565 20.0161 29C20.0161 30.1275 20.2214 31.207 20.602 32.2025Z" fill="#FBBB00"/>
<path d="M44.4022 26.1333C44.5774 27.0629 44.674 28.0224 44.674 29C44.674 30.0975 44.5592 31.171 44.3357 32.2085C43.5807 35.7289 41.6174 38.7995 38.8931 40.9765L34.4834 40.7546L33.8612 36.8864C35.6674 35.8309 37.0809 34.1876 37.8239 32.2145H29.5482V26.1333H37.9387H44.4022Z" fill="#518EF8"/>
<path d="M38.8931 40.9705C36.2413 43.0875 32.8766 44.353 29.2099 44.353C23.3203 44.353 18.1978 41.0845 15.5883 36.2747L20.602 32.2025C21.9068 35.663 25.2714 38.1278 29.2099 38.1278C30.9013 38.1278 32.49 37.672 33.8552 36.8804L38.8931 40.9705Z" fill="#28B446"/>
<path d="M39.0804 17.1794L34.0727 21.2516C32.6652 20.376 30.998 19.8722 29.21 19.8722C25.1808 19.8722 21.7558 22.451 20.5114 26.0314L15.4735 21.9352C18.0468 17.0115 23.2358 13.6471 29.21 13.6471C32.9612 13.6471 36.4044 14.9724 39.0804 17.1794Z" fill="#F14336"/>
</svg>
