<svg width="116" height="35" viewBox="0 0 116 35" fill="none" xmlns="http://www.w3.org/2000/svg">
<rect width="116" height="35" fill="#F50D5A"/>
<path fill-rule="evenodd" clip-rule="evenodd" d="M107.932 18.0111V20.1326H105.994V22.2541H103.991V24.0442H102.085V20.1326H93.8473V14H102.053V9.98895H103.959V11.9779H105.962V13.9669H107.9V15.9558H110V17.9779H107.932V18.0111ZM100.05 26H89.906V24.011H100.05V26ZM88 24.011V9.98895H89.906V24.011H88ZM89.906 8H100.05V9.98895H89.906V8Z" fill="#250C23"/>
<path d="M11.7143 20.0952H15.5238V22H7.90476V12.4762H11.7143V20.0952ZM20.8981 22V20.0952H18.9933V14.381H20.8981V12.4762H26.6124V14.381H28.5171V20.0952H26.6124V22H20.8981ZM22.8028 20.0952H24.7076V14.381H22.8028V20.0952ZM33.8929 22V20.0952H31.9881V14.381H33.8929V12.4762H41.5119V14.381H35.7976V20.0952H37.7024V16.2857H41.5119V20.0952H39.6071V22H33.8929ZM46.8876 22V20.0952H44.9829V14.381H46.8876V12.4762H52.6019V14.381H54.5067V20.0952H52.6019V22H46.8876ZM48.7924 20.0952H50.6972V14.381H48.7924V20.0952ZM59.8824 22V20.0952H57.9777V12.4762H61.7872V20.0952H63.692V12.4762H67.5015V20.0952H65.5967V22H59.8824ZM72.8772 22V14.381H70.9725V12.4762H78.5915V14.381H76.6868V22H72.8772Z" fill="#250C23"/>
</svg>
