<svg width="45" height="27" viewBox="0 0 45 27" fill="none" xmlns="http://www.w3.org/2000/svg">
<rect x="6" y="18" width="33" height="3" fill="#0096CE"/>
<rect x="6" y="15" width="33" height="3" fill="#00DA76"/>
<rect x="3" y="12" width="39" height="3" fill="#FFEA5C"/>
<rect x="6" y="9" width="33" height="3" fill="#FFEA5C"/>
<rect x="6" y="6" width="33" height="3" fill="#FF865C"/>
<rect x="6" y="21" width="33" height="6" fill="#800FFF"/>
<path d="M3 3H6V12H3V3Z" fill="url(#paint0_linear)"/>
<path d="M3 15H6V24H3V15Z" fill="url(#paint1_linear)"/>
<path d="M0 12H3V15H0V12Z" fill="url(#paint2_linear)"/>
<path d="M42 3H39V12H42V3Z" fill="url(#paint3_linear)"/>
<path d="M42 15H39V24H42V15Z" fill="url(#paint4_linear)"/>
<path d="M45 12H42V15H45V12Z" fill="url(#paint5_linear)"/>
<rect x="6" width="33" height="6" fill="#F50D5A"/>
<defs>
<linearGradient id="paint0_linear" x1="3" y1="3" x2="3" y2="24" gradientUnits="userSpaceOnUse">
<stop offset="0.128552" stop-color="#F50D5A"/>
<stop offset="0.857077" stop-color="#800FFF"/>
</linearGradient>
<linearGradient id="paint1_linear" x1="3" y1="3" x2="3" y2="24" gradientUnits="userSpaceOnUse">
<stop offset="0.128552" stop-color="#F50D5A"/>
<stop offset="0.857077" stop-color="#800FFF"/>
</linearGradient>
<linearGradient id="paint2_linear" x1="3" y1="3" x2="3" y2="24" gradientUnits="userSpaceOnUse">
<stop offset="0.128552" stop-color="#F50D5A"/>
<stop offset="0.857077" stop-color="#800FFF"/>
</linearGradient>
<linearGradient id="paint3_linear" x1="42" y1="3" x2="42" y2="24" gradientUnits="userSpaceOnUse">
<stop offset="0.128552" stop-color="#F50D5A"/>
<stop offset="0.857077" stop-color="#800FFF"/>
</linearGradient>
<linearGradient id="paint4_linear" x1="42" y1="3" x2="42" y2="24" gradientUnits="userSpaceOnUse">
<stop offset="0.128552" stop-color="#F50D5A"/>
<stop offset="0.857077" stop-color="#800FFF"/>
</linearGradient>
<linearGradient id="paint5_linear" x1="42" y1="3" x2="42" y2="24" gradientUnits="userSpaceOnUse">
<stop offset="0.128552" stop-color="#F50D5A"/>
<stop offset="0.857077" stop-color="#800FFF"/>
</linearGradient>
</defs>
</svg>
