<svg width="87" height="12" viewBox="0 0 87 12" fill="none" xmlns="http://www.w3.org/2000/svg">
<path fill-rule="evenodd" clip-rule="evenodd" d="M84.6196 9.39143V11.7008H75.0187V0H84.6196V2.38635H87V9.39143H84.6196ZM82.1599 2.46332H79.7795V9.46841H82.1599V2.46332ZM60.5777 0.0769778H70.1786V2.46332H65.4178V4.77269H70.1786V7.08206H65.4178V9.39143H70.1786V11.7008H60.5777V0.0769778ZM53.3572 11.7778H48.5171V2.46332H46.1367V0.0769778H55.7376V2.46332H53.3572V11.7778ZM36.5358 0.0769778H41.3759V11.7778H36.5358V0.0769778ZM26.8556 9.39143H24.4752V7.08206H22.0948V11.7778H17.2547V0.0769778H22.0948V2.46332H24.4752V4.77269H26.8556V0.0769778H31.6957V11.7778H26.8556V9.39143ZM10.0342 11.7778H2.81371V9.46841H0.433327V0.153956H5.27344V9.46841H7.65383V0.153956H12.4939V9.46841H10.1136V11.7778H10.0342Z" fill="white"/>
</svg>
