<svg width="470" height="287" viewBox="0 0 470 287" fill="none" xmlns="http://www.w3.org/2000/svg">
<rect x="349.889" y="69.5758" width="229.778" height="34.7879" transform="rotate(-180 349.889 69.5758)" fill="#FF865C"/>
<path d="M370.778 97.4061L370.778 104.364L99.2222 104.364L99.2222 97.406L106.185 97.406L106.185 90.4485L113.148 90.4485L113.148 83.4909L120.111 83.4909L120.111 69.5757L349.889 69.5758L349.889 83.4909L356.852 83.4909L356.852 90.4485L363.815 90.4485L363.815 97.4061L370.778 97.4061Z" fill="#FFEA5C"/>
<path d="M349.889 118.279L349.889 139.152L120.111 139.151L120.111 118.279L113.148 118.279L113.148 111.321L106.185 111.321L106.185 104.364L363.815 104.364L363.815 111.321L356.852 111.321L356.852 118.279L349.889 118.279Z" fill="#00DA76"/>
<rect x="349.889" y="173.939" width="229.778" height="34.7879" transform="rotate(-180 349.889 173.939)" fill="#0096CE"/>
<path fill-rule="evenodd" clip-rule="evenodd" d="M134.037 208.727V201.77H113.148V194.812H106.185V180.897H99.2221L99.2221 118.279H92.2592V111.321H85.2962V104.364H78.3333V97.4061H85.2962V90.4485H92.2592V83.4909H99.2221L99.2221 27.8303H106.185V13.9152H113.148V6.95758H134.037V0L335.963 0V6.95758H356.852V13.9152H363.815V27.8303H370.778V83.4909H377.741V90.4485H384.704V97.4061H391.667V104.364H384.704V111.321H377.741V118.279H370.778V180.897H363.815V194.812H356.852V201.77H335.963V208.727L134.037 208.727ZM120.111 173.939L120.111 118.279H113.148V111.321H106.185V104.364H99.2221V97.4061H106.185V90.4485H113.148V83.4909H120.111L120.111 34.7879L349.889 34.7879V83.4909H356.852V90.4485H363.815V97.4061L370.778 97.4061V104.364L363.815 104.364V111.321H356.852V118.279H349.889V173.939L120.111 173.939Z" fill="url(#paint0_linear)"/>
<path fill-rule="evenodd" clip-rule="evenodd" d="M462.964 271.255V278.076H434.584V243.515H462.964V250.564H470V271.255H462.964ZM455.693 250.791H448.656V271.482H455.693V250.791ZM391.896 243.743H420.276V250.791H406.204V257.612H420.276V264.433H406.204V271.255H420.276V278.076H391.896V243.743ZM370.553 278.303H356.246V250.791H349.209V243.743H377.589V250.791H370.553V278.303ZM320.829 243.743H335.136V278.303H320.829V243.743ZM292.215 271.255H285.178V264.433H278.142V278.303H263.835V243.743H278.142V250.791H285.178V257.612H292.215V243.743H306.522V278.303H292.215V271.255ZM242.491 278.303H221.147V271.482H214.111V243.97H228.418V271.482H235.455V243.97H249.762V271.482H242.726V278.303H242.491Z" fill="white"/>
<path fill-rule="evenodd" clip-rule="evenodd" d="M170.129 287V279.871H198.444V287H170.129ZM127.538 279.871V272.743H148.833V279.871H127.538ZM148.833 265.376H155.854V272.505H148.833V265.376ZM134.792 258.248H149.067V265.376H134.792V258.248ZM127.538 251.119H134.558V258.248H127.538V251.119ZM156.088 243.753V251.119H134.792V243.753H156.088ZM99.2222 272.505V258.01H106.243V272.505H99.2222ZM92.4358 279.871V272.743H99.2222V279.871H92.4358ZM85.1813 258.248H92.4358V272.743H85.1813V258.248ZM77.9269 243.753H84.9473V258.248H77.9269V243.753ZM106.477 243.753H113.497V258.248H106.477V243.753ZM42.5907 243.753H63.886V251.119H49.8451V258.248H63.886V265.376H49.8451V272.505H63.886V279.634H42.5907V243.753ZM21.2953 251.119H28.3158V272.743H21.2953V251.119ZM7.02044 272.505H21.2953V279.634H0V243.515H21.2953V250.881H7.02044V272.505Z" fill="#F50D5A"/>
<defs>
<linearGradient id="paint0_linear" x1="235" y1="208.727" x2="235" y2="0" gradientUnits="userSpaceOnUse">
<stop offset="0.166667" stop-color="#800FFF"/>
<stop offset="0.833333" stop-color="#F50D5A"/>
</linearGradient>
</defs>
</svg>
